# xmcd CD database file generated by OrangeCD 5.2
#
# Track frame offsets:
#	150
#	14760
#	35665
#	52945
#	64550
#	83227
#	96960
#	109730
#	132590
#	147072
#	165717
#	179835
#	195930
#	211840
#	227420
#	245152
#	260575
#	274135
#	295520
#	314910
#
# Disc length: 4537 seconds
#
# Revision: 8
# Processed by: cddbd v1.5.1PL0 Copyright (c) Steve Scherf et al.
# Submitted via: OrangeCD 5.2
#
DISCID=2c11b714
DTITLE=Emmylou Harris - Portraits [CD3]
DYEAR=1996
DGENRE=Country
TTITLE0=In My Dreams
TTITLE1=Love Is
TTITLE2=To Know Him Is To Love Him (With Dolly Parton and Linda Ronstadt)
TTITLE3=The Pain Of Loving You (With Dolly Parton and Linda Ronstadt)
TTITLE4=Farther Along (With Dolly Parton and Linda Ronstadt)
TTITLE5=Angel Band
TTITLE6=I Still Miss Someone
TTITLE7=A River For Him
TTITLE8=Heartbreak Hill
TTITLE9=Icy Blue Heart
TTITLE10=Gulf Coast Highway (With Willie Nelson)
TTITLE11=We Believe In Happy Endings (With Earl Thomas Conley)
TTITLE12=West Texas Waltz (With Flaco Jimenez)
TTITLE13=Rollin' And Ramblin' (The Death Of Hank Williams)
TTITLE14=Casey's Last Ride
TTITLE15=Hard Times
TTITLE16=Calling My Children Home
TTITLE17=Walls Of Time
TTITLE18=When I Paint My Masterpiece
TTITLE19=No Regrets
EXTD=
EXTT0=
EXTT1=
EXTT2=w. parton and ronstadt
EXTT3=w. parton and ronstadt
EXTT4=w. parton and ronstadt
EXTT5=
EXTT6=
EXTT7=
EXTT8=
EXTT9=
EXTT10=w. willie nelson
EXTT11=w. earl thomas conley
EXTT12=w. felco jiminez
EXTT13=
EXTT14=
EXTT15=
EXTT16=
EXTT17=
EXTT18=
EXTT19=
PLAYORDER=
